<svg width="38" height="30" viewBox="0 0 38 30" fill="none" xmlns="http://www.w3.org/2000/svg">
<path d="M34 0H4.00002C2.16669 0 0.666687 1.5 0.666687 3.33333V26.6667C0.666687 28.5 2.16669 30 4.00002 30H34C35.8334 30 37.3334 28.5 37.3334 26.6667V3.33333C37.3334 1.5 35.8334 0 34 0ZM32.3334 26.6667H20.6667C19.75 26.6667 19 25.9167 19 25V18.3333C19 17.4167 19.75 16.6667 20.6667 16.6667H32.3334C33.25 16.6667 34 17.4167 34 18.3333V25C34 25.9167 33.25 26.6667 32.3334 26.6667Z" fill="#A1C5E9"/>
</svg>
