<svg width="40" height="40" viewBox="0 0 40 40" fill="none" xmlns="http://www.w3.org/2000/svg">
<path d="M15 35.5556C16.5341 35.5556 17.7778 34.3119 17.7778 32.7778C17.7778 31.2437 16.5341 30 15 30C13.4659 30 12.2222 31.2437 12.2222 32.7778C12.2222 34.3119 13.4659 35.5556 15 35.5556Z" fill="#A1C5E9"/>
<path d="M29.4444 35.5556C30.9786 35.5556 32.2222 34.3119 32.2222 32.7778C32.2222 31.2437 30.9786 30 29.4444 30C27.9103 30 26.6667 31.2437 26.6667 32.7778C26.6667 34.3119 27.9103 35.5556 29.4444 35.5556Z" fill="#A1C5E9"/>
<path d="M36.7778 7.10004C36.6743 6.96558 36.5413 6.85661 36.3892 6.7815C36.237 6.70638 36.0697 6.66712 35.9 6.66671H10.2333L9.73334 5.07782C9.67842 4.90722 9.58304 4.75244 9.45534 4.62668C9.32765 4.50092 9.17143 4.40791 9.00001 4.3556L4.44445 2.9556C4.30437 2.91255 4.15719 2.89752 4.0113 2.91136C3.86542 2.9252 3.72369 2.96763 3.5942 3.03624C3.33269 3.17481 3.13694 3.41159 3.05001 3.69449C2.96307 3.97738 2.99208 4.28323 3.13065 4.54474C3.26922 4.80625 3.506 5.002 3.78889 5.08893L7.77778 6.31115L12.8667 22.3889L11.0556 23.8778L10.9111 24.0223C10.4632 24.5409 10.2095 25.199 10.1933 25.8841C10.177 26.5692 10.3994 27.2386 10.8222 27.7778C11.1251 28.1461 11.5099 28.4384 11.9459 28.6313C12.382 28.8243 12.8571 28.9125 13.3333 28.8889H31.8778C32.1725 28.8889 32.4551 28.7719 32.6635 28.5635C32.8718 28.3551 32.9889 28.0725 32.9889 27.7778C32.9889 27.4831 32.8718 27.2005 32.6635 26.9921C32.4551 26.7838 32.1725 26.6667 31.8778 26.6667H13.1556C13.0276 26.6623 12.903 26.625 12.7936 26.5584C12.6843 26.4918 12.594 26.3981 12.5314 26.2864C12.4689 26.1747 12.4362 26.0488 12.4365 25.9208C12.4369 25.7927 12.4702 25.667 12.5333 25.5556L15.2111 23.3334H32.3556C32.6094 23.3408 32.8581 23.261 33.0602 23.1074C33.2624 22.9537 33.4058 22.7355 33.4667 22.4889L37.0222 8.04449C37.056 7.87884 37.0516 7.70767 37.0092 7.544C36.9668 7.38034 36.8877 7.2285 36.7778 7.10004Z" fill="#A1C5E9"/>
</svg>
