<svg width="34" height="36" viewBox="0 0 34 36" fill="none" xmlns="http://www.w3.org/2000/svg">
<path d="M4.16667 0.333313H23.3333C24.4384 0.333313 25.4982 0.7723 26.2796 1.5537C27.061 2.3351 27.5 3.39491 27.5 4.49998V15.855C25.6008 15.2396 23.5685 15.1611 21.6275 15.6279C19.6865 16.0948 17.9122 17.0889 16.5006 18.5006C15.0889 19.9122 14.0948 21.6865 13.6279 23.6275C13.1611 25.5685 13.2397 27.6008 13.855 29.5H2.5C2.5 29.942 2.6756 30.3659 2.98816 30.6785C3.30072 30.9911 3.72464 31.1666 4.16667 31.1666H14.5533C15.0305 32.081 15.6355 32.9228 16.35 33.6666H4.16667C3.0616 33.6666 2.00179 33.2277 1.22039 32.4463C0.438987 31.6649 0 30.605 0 29.5V4.49998C0 3.39491 0.438987 2.3351 1.22039 1.5537C2.00179 0.7723 3.0616 0.333313 4.16667 0.333313ZM6.66667 5.33331C6.22464 5.33331 5.80072 5.50891 5.48816 5.82147C5.17559 6.13403 5 6.55795 5 6.99998V8.66665C5 9.10867 5.17559 9.5326 5.48816 9.84516C5.80072 10.1577 6.22464 10.3333 6.66667 10.3333H20C20.442 10.3333 20.8659 10.1577 21.1785 9.84516C21.4911 9.5326 21.6667 9.10867 21.6667 8.66665V6.99998C21.6667 6.55795 21.4911 6.13403 21.1785 5.82147C20.8659 5.50891 20.442 5.33331 20 5.33331H6.66667Z" fill="#A1C5E9"/>
<path d="M33.3333 26.1667C33.3333 23.7355 32.3676 21.4039 30.6485 19.6849C28.9294 17.9658 26.5978 17 24.1667 17C21.7355 17 19.4039 17.9658 17.6849 19.6849C15.9658 21.4039 15 23.7355 15 26.1667C15 28.5978 15.9658 30.9294 17.6849 32.6485C19.4039 34.3676 21.7355 35.3333 24.1667 35.3333C26.5978 35.3333 28.9294 34.3676 30.6485 32.6485C32.3676 30.9294 33.3333 28.5978 33.3333 26.1667ZM23.19 22.1617L27.8667 25.2283C28.0116 25.3213 28.1305 25.4497 28.2121 25.6013C28.2937 25.7529 28.3354 25.9228 28.3333 26.095C28.3335 26.2683 28.2924 26.4391 28.2133 26.5933C28.1387 26.746 28.0248 26.876 27.8833 26.97L23.205 30.1617C23.1236 30.2164 23.035 30.2596 22.9417 30.29C22.725 30.3592 22.4905 30.3455 22.2833 30.2517C22.1639 30.1958 22.0551 30.1196 21.9617 30.0267C21.8714 29.9284 21.7982 29.8157 21.745 29.6933C21.6929 29.5682 21.6663 29.4339 21.6667 29.2983V23.035C21.6658 22.8345 21.7231 22.638 21.8317 22.4693C21.9403 22.3007 22.0954 22.1672 22.2783 22.085C22.4236 22.0169 22.5842 21.988 22.7441 22.0012C22.9041 22.0143 23.0578 22.0691 23.19 22.16V22.1617Z" fill="#A1C5E9"/>
</svg>
