<svg width="26" height="40" viewBox="0 0 26 40" fill="none" xmlns="http://www.w3.org/2000/svg">
<path d="M21.75 0H4.25C2.1875 0 0.5 1.6875 0.5 3.75V36.25C0.5 38.3125 2.1875 40 4.25 40H21.75C23.8125 40 25.5 38.3125 25.5 36.25V3.75C25.5 1.6875 23.8125 0 21.75 0ZM8 1.875H18V3.125H8V1.875ZM13 37.5C12.337 37.5 11.7011 37.2366 11.2322 36.7678C10.7634 36.2989 10.5 35.663 10.5 35C10.5 34.337 10.7634 33.7011 11.2322 33.2322C11.7011 32.7634 12.337 32.5 13 32.5C13.663 32.5 14.2989 32.7634 14.7678 33.2322C15.2366 33.7011 15.5 34.337 15.5 35C15.5 35.663 15.2366 36.2989 14.7678 36.7678C14.2989 37.2366 13.663 37.5 13 37.5ZM23 30H3V5H23V30Z" fill="#A1C5E9"/>
</svg>
