<svg width="31" height="30" viewBox="0 0 31 30" fill="none" xmlns="http://www.w3.org/2000/svg">
<path d="M22.0667 14.1833L24.6833 11.5666L18.4333 5.31665L15.8167 7.93332L8.91667 1.04998C7.61667 -0.250017 5.5 -0.250017 4.2 1.04998L1.03333 4.21665C-0.266667 5.51665 -0.266667 7.63332 1.03333 8.93332L7.91667 15.8166L0 23.75V30H6.25L14.1833 22.0667L21.0667 28.95C22.65 30.5333 24.7833 29.95 25.7833 28.95L28.95 25.7833C30.25 24.4833 30.25 22.3667 28.95 21.0667L22.0667 14.1833ZM10.3 13.45L3.4 6.56665L6.55 3.39998L8.66667 5.51665L6.7 7.49998L9.05 9.84998L11.0333 7.86665L13.45 10.2833L10.3 13.45ZM23.4333 26.6L16.55 19.7167L19.7167 16.55L22.1333 18.9667L20.15 20.95L22.5 23.3L24.4833 21.3167L26.6 23.4333L23.4333 26.6ZM29.5167 6.73332C29.6712 6.57913 29.7938 6.39598 29.8774 6.19436C29.961 5.99273 30.0041 5.7766 30.0041 5.55832C30.0041 5.34004 29.961 5.1239 29.8774 4.92228C29.7938 4.72065 29.6712 4.53751 29.5167 4.38332L25.6167 0.483316C24.8333 -0.300017 23.75 -1.7037e-05 23.2667 0.483316L20.2167 3.53332L26.4667 9.78332L29.5167 6.73332Z" fill="#A1C5E9"/>
</svg>
