<?xml version="1.0" standalone="no"?>
<!DOCTYPE svg PUBLIC "-//W3C//DTD SVG 20010904//EN"
 "http://www.w3.org/TR/2001/REC-SVG-20010904/DTD/svg10.dtd">
<svg version="1.0" xmlns="http://www.w3.org/2000/svg"
 width="260.000000pt" height="260.000000pt" viewBox="0 0 260.000000 260.000000"
 preserveAspectRatio="xMidYMid meet">
<metadata>
Created by potrace 1.14, written by Peter Selinger 2001-2017
</metadata>
<g transform="translate(0.000000,260.000000) scale(0.100000,-0.100000)"
fill="#000000" stroke="none">
<path d="M1110 2445 c-41 -7 -95 -20 -120 -29 -25 -9 -53 -16 -62 -16 -10 0
-18 -5 -18 -12 0 -6 -3 -9 -6 -5 -4 3 -21 -1 -38 -10 -17 -10 -34 -16 -38 -15
-5 1 -8 -3 -8 -9 0 -5 -4 -7 -10 -4 -5 3 -10 1 -10 -6 0 -7 -3 -9 -7 -6 -3 4
-12 2 -20 -4 -7 -6 -13 -8 -13 -5 0 4 -12 -5 -27 -19 -16 -14 -32 -24 -37 -22
-4 1 -20 -7 -35 -20 -14 -12 -58 -49 -96 -81 -39 -33 -93 -86 -121 -118 -61
-70 -144 -192 -144 -211 0 -7 -4 -13 -8 -13 -8 0 -36 -60 -33 -72 0 -5 -4 -8
-10 -8 -5 0 -8 -4 -5 -9 4 -5 2 -11 -3 -13 -5 -1 -11 -14 -13 -28 -1 -14 -6
-27 -10 -30 -14 -11 -49 -170 -59 -277 -13 -119 0 -323 21 -348 5 -6 7 -14 4
-17 -5 -5 18 -99 33 -138 4 -8 7 -17 7 -20 1 -3 10 -23 21 -45 10 -22 20 -44
21 -50 6 -37 157 -248 209 -294 19 -17 35 -33 35 -36 0 -7 55 -55 77 -68 10
-6 20 6 37 45 13 29 27 68 31 86 3 17 11 32 16 32 6 0 7 5 4 10 -3 6 -1 10 5
10 6 0 8 4 5 10 -3 5 4 31 15 57 12 27 23 55 25 63 2 8 4 16 5 18 2 1 3 5 5
10 3 12 16 45 31 78 l14 32 92 -24 c51 -13 102 -24 115 -24 13 0 23 -4 23 -10
0 -5 7 -7 15 -4 8 4 23 3 33 -1 48 -20 254 -20 327 -1 46 13 68 26 98 57 41
45 45 70 22 125 -15 37 -66 94 -84 94 -6 0 -11 5 -11 10 0 6 -5 10 -10 10 -6
0 -29 9 -53 19 -99 45 -142 64 -147 65 -3 1 -15 7 -26 14 -12 6 -24 8 -28 5
-3 -3 -6 -2 -6 4 0 10 -36 26 -52 24 -5 -1 -8 2 -8 7 0 4 -20 16 -45 27 -25
11 -45 23 -45 27 0 5 -4 8 -10 8 -24 0 -160 114 -160 135 0 3 -6 13 -12 20
-23 26 -33 41 -36 55 -2 8 -8 17 -12 20 -5 3 -11 23 -14 45 -2 22 -5 40 -7 40
-5 0 -3 187 3 191 3 2 5 16 2 29 -2 14 0 25 6 25 6 0 10 6 8 13 -4 20 48 110
86 149 50 52 182 127 209 120 4 -1 7 2 7 6 0 5 6 9 13 10 21 2 42 7 54 15 45
28 462 26 471 -3 2 -6 8 -8 13 -5 5 3 17 1 28 -4 15 -9 22 -6 35 14 9 14 14
25 10 25 -4 0 -1 7 6 15 7 8 9 15 5 15 -4 0 -3 6 3 13 12 14 52 133 52 155 0
7 -4 10 -10 7 -5 -3 -10 -3 -10 2 0 9 -63 33 -96 37 -11 1 -25 5 -31 9 -5 3
-50 13 -98 22 -104 18 -290 18 -395 0z"/>
<path d="M1955 2210 c-10 -22 -22 -40 -27 -40 -5 0 -7 -4 -4 -9 3 -5 -1 -23
-10 -40 -9 -18 -17 -37 -18 -44 -1 -7 -7 -22 -14 -33 -6 -12 -8 -24 -5 -28 3
-3 1 -6 -6 -6 -7 0 -11 -6 -9 -12 3 -7 -2 -19 -9 -27 -8 -7 -12 -20 -9 -27 3
-8 1 -14 -4 -14 -6 0 -10 -4 -10 -9 0 -5 -14 -45 -30 -89 l-31 -79 -92 19
c-51 11 -99 22 -107 25 -8 3 -35 7 -60 10 -25 2 -61 6 -80 8 -64 8 -140 10
-140 4 0 -4 -20 -9 -44 -11 -84 -10 -125 -82 -91 -159 8 -19 15 -29 15 -24 0
6 6 3 13 -7 13 -17 188 -107 287 -149 30 -12 62 -28 71 -36 8 -7 22 -13 30
-13 43 0 299 -211 299 -246 0 -6 7 -17 15 -24 8 -7 12 -16 9 -21 -3 -5 0 -9 7
-9 7 0 9 -3 6 -7 -4 -3 0 -14 9 -24 9 -10 14 -27 11 -39 -3 -11 -2 -20 3 -20
4 0 6 -51 4 -112 -3 -129 -4 -138 -16 -138 -5 0 -7 -4 -3 -9 3 -5 1 -12 -5
-16 -6 -4 -8 -11 -5 -16 4 -5 2 -9 -3 -9 -5 0 -14 -12 -21 -27 -7 -16 -12 -28
-10 -28 2 0 -21 -26 -51 -59 -51 -54 -140 -125 -140 -111 0 3 -10 -3 -22 -14
-11 -11 -25 -18 -30 -15 -4 3 -14 2 -20 -3 -13 -8 -29 -12 -60 -15 -10 -1 -18
-6 -18 -11 0 -5 -11 -7 -25 -5 -14 3 -25 2 -25 -1 0 -10 -59 -13 -265 -14
-189 0 -275 6 -298 20 -7 4 -21 8 -32 8 -16 0 -25 -18 -52 -100 -18 -55 -33
-101 -33 -102 0 -6 77 -45 92 -46 10 -1 18 -4 18 -8 0 -4 17 -10 37 -15 44 -9
42 -8 66 -18 9 -5 24 -6 32 -2 8 3 15 1 15 -3 0 -27 306 -41 440 -21 86 13
257 68 295 94 17 12 30 19 30 17 0 -2 10 -1 23 3 12 4 22 12 22 17 0 5 5 9 11
9 24 0 245 161 234 171 -2 2 11 15 28 28 34 25 157 190 157 210 0 6 5 11 10
11 6 0 10 5 10 10 0 6 11 28 25 50 14 22 23 40 19 40 -3 0 3 15 14 33 12 17
20 34 20 37 -1 3 6 28 16 56 9 28 18 59 20 70 2 10 10 39 17 64 9 30 14 105
14 230 0 161 -3 196 -23 270 -29 108 -55 184 -65 188 -4 2 -5 8 -1 13 3 5 0 9
-6 9 -6 0 -8 5 -5 10 3 6 1 10 -4 10 -6 0 -11 9 -11 20 0 11 -5 20 -10 20 -6
0 -9 3 -8 8 2 4 -19 43 -47 87 -52 85 -194 240 -268 293 l-44 31 -18 -39z"/>
</g>
</svg>
