<svg width="70" height="70" viewBox="0 0 70 70" fill="none" xmlns="http://www.w3.org/2000/svg">
<circle cx="35" cy="35" r="35" fill="#1E2028"/>
<path d="M22.3281 23.9531C21.9609 24.0391 22.1953 24.0234 21.8906 24.0625C20.5859 24.3438 21.5547 24.5938 22.3281 23.9531ZM45.2734 24.4766C45.3672 24.4141 45.6953 24.0938 44.6719 23.7812C44.7344 24.1016 44.4609 24.0703 44.4609 24.25C45.2188 24.9375 45.5313 26.1328 46.5 26.3828C46.6875 25.5234 45.6406 25.1016 45.2734 24.4766ZM21.6328 23.7031C21.75 24.3984 22.2734 22.9688 22.2812 22.4609C22.0781 22.5781 21.875 22.6953 21.6641 22.7891C22.1563 23.0391 21.7266 23.3047 21.1953 23.7031C20.1172 25.0469 22.2031 22.6562 21.6328 23.7031ZM35 15C23.9531 15 15 23.9531 15 35C15 46.0391 23.9531 55 35 55C46.0469 55 55 46.0391 55 35C55 23.9531 46.0469 15 35 15ZM35.5312 21.7031L35.625 21.7344C35.25 22.2187 37.5781 23.6328 35.9062 23.75C34.3438 24.1953 36.5625 23.3438 35.3516 23.4922C35.9922 22.6016 34.8437 22.5859 35.5312 21.7031ZM26.0469 22.9844C25.4844 22.5156 23.7188 23.625 24.3359 23.3594C25.8672 22.7578 24.4375 23.4219 24.7969 24.1406C24.4688 24.8203 24.6875 23.4688 23.875 24.2734C23.2891 24.4062 21.8516 25.7344 22.0312 25.3281C21.9844 25.9609 20.3203 26.7109 20.0938 27.7656C19.5469 29.2266 19.9609 27.7109 19.8594 27.1406C19.0781 26.1484 17.6562 28.8203 18.0781 29.875C18.7891 28.625 18.7344 29.7422 18.2188 30.2969C18.7422 31.2578 17.7422 32.5078 18.7344 33.2188C19.1719 33.3203 20.0469 31.75 19.6641 33.3828C19.9297 31.9688 20.3984 33.7188 21.1562 33.3281C21.2031 34.0703 21.6641 33.7266 21.7656 34.625C23.0312 34.5312 24.1875 36.6719 22.6797 37.0781C22.9063 37.0156 23.3516 37.4141 23.8672 37.1094C24.7422 37.8047 27.0469 37.8906 27.1094 39.6094C25.5234 40.3672 26.7188 42.4453 25.3438 43.1875C23.7656 42.9531 24.8047 45.1328 24.1406 44.8828C24.4062 46.4531 22.5469 44.6797 23.2656 45.5469C24.5859 46.3594 22.6875 46.1953 23.2812 46.7891C22.6172 46.6484 23.6953 48.0234 23.875 48.5312C24.8281 50.0781 23.0547 48.1875 22.5312 47.6719C22.0312 46.6719 20.8516 44.7578 20.5234 43.1875C20.3359 40.9062 18.5703 39.375 18.1641 37.1484C17.7578 35.9062 19.2812 33.9141 18.4609 33.2188C17.75 32.6641 18.0391 30.7656 17.6172 29.7656C18.6719 25.1953 22.0234 21.3438 26.0469 19.0625C25.6328 19.3672 28.4141 18.2734 28.0938 18.5391C28.0078 18.7344 29.7188 17.7969 30.75 17.6562C30.6406 17.6719 28.0703 18.5938 28.7812 18.4688C27.6797 19.0078 28.6719 18.7031 29.2188 18.4297C28.125 19.2344 27.2812 19.0078 26.0391 19.7188C24.7891 20.0469 25.0469 21.3438 24.1562 21.9922C24.6797 22.0859 25.9922 20.6406 26.7578 20.1328C28.5156 19.2812 25.8672 21.6797 27.5391 20.6484C26.9766 21.1719 27.0938 22.0078 26.75 22.2422C26.5781 22.1953 27.4297 22.6484 26.0469 22.9844ZM28.7812 19.3906C28.6016 19.6328 28.3516 20.1562 28.2031 19.8359C28 19.9375 27.9219 20.375 27.5391 20.0234C27.7656 19.8594 28 19.4688 27.5547 19.7109C27.7578 19.4922 29.5703 18.875 29.4688 18.6406C29.7891 18.4375 29.7578 18.3359 29.3906 18.4609C29.2031 18.3984 29.8359 17.8672 30.6797 17.7969C30.7969 17.7969 30.8438 17.875 30.6328 17.8516C29.3594 18.2422 29.9062 18.1328 30.7656 17.8516C30.4375 18.0391 30.2109 18.0938 30.1562 18.1797C31.0156 17.8672 30.1094 18.4062 30.3047 18.3672C30.0625 18.4922 30.3438 18.5312 29.875 18.7109C29.9609 18.6406 29.1094 19.2188 29.6172 19.0469C29.125 19.5156 28.9062 19.5234 28.7812 19.3906ZM29.5312 20.5078C29.5469 19.7578 30.625 19.2812 30.4922 19.2422C31.8203 18.6172 30.0312 19.2656 31.0781 18.7031C31.4688 18.6641 32.2969 17.4141 33.4453 17.3359C34.7109 16.9531 34.125 17.3594 35.0625 17L34.875 17.1562C34.7109 17.1797 34.9141 17.4688 34.3203 17.9062C34.2578 18.5859 33.1875 18.2734 33.7188 19C33.375 18.5078 32.8594 18.9844 33.5078 19.0312C32.8125 19.5625 31.1953 19.6562 30.4219 20.5391C29.9219 21.2578 29.4609 21.0312 29.5312 20.5078ZM35.0859 23.0078C34.5547 24.2891 34.0391 22.8203 34.9766 22.5859C35.2109 22.7109 35.3047 22.75 35.0859 23.0078ZM33.0859 20.4453C32.9297 19.8672 33.0547 20.1719 33.9844 19.8984C34.625 20.3594 33.4141 20.6641 33.0859 20.4453ZM47.6328 43.375C46.8984 42.1094 48.5234 40.9375 49.0703 39.875C49 41.1172 48.8438 42.3438 47.6328 43.375ZM50.3984 28.9141C49.6016 28.9766 48.8828 29.1641 48.1641 28.7109C46.5078 26.8984 48.4688 30.7578 49.0156 29.1797C50.9844 29.9297 48.9844 33.1641 47.7422 32.8281C47.0469 31.3281 46.1875 29.6797 44.6719 28.9453C45.8359 30.2344 46.4141 31.8203 47.6641 32.9844C47.75 34.6094 49.3984 32.3906 49.2969 33.6484C49.4531 35.8125 46.8516 37.1094 47.3047 39.2812C48.2734 41.2578 45.4375 41.6172 45.7578 43.3906C44.6172 44.6641 43.3984 46.3828 41.3516 46.1094C41.3516 45.0312 40.8047 44.1172 40.6797 43.0078C39.5703 41.6016 41.8516 40.0938 40.4375 38.625C38.8047 38.2578 40.7734 36.0078 39.0938 36.2188C38.0859 35.2109 36.6094 36.1875 35.1641 36.1953C33.3516 36.3672 31.4844 33.9688 32.2891 32.2734C31.6484 30.5078 34.3203 29.9922 34.3906 28.4375C35.6719 27.3672 37.4922 27.5 39.2266 27.25C39.1016 28.4922 40.4141 28.5 41.4062 28.9141C41.9609 27.5703 43.6875 29.1328 44.8672 28.2812C45.2734 26.2969 43.7188 27.4922 42.8281 26.8594C41.75 25.2812 45.1328 26.0469 44.7812 25.2188C43.4688 25.2109 44.2109 23.6016 43.2812 24.5C44.1172 24.6484 43.1328 25.3047 43.1562 24.5547C41.8906 24.1875 43.1094 25.9922 42.4688 26.1641C41.4922 25.7578 41.9531 26.625 42.0547 26.7578C41.6328 27.6719 41.1172 25.4141 39.9219 25.4766C38.7344 24.3906 39.4531 25.9688 40.4844 26.2266C40.2656 26.2891 40.6094 27.1875 40.3359 26.8047C39.4844 25.6328 37.8672 24.8516 36.9062 26.2891C36.8047 27.6328 34.0703 28.0156 34.5078 26.4453C33.8672 24.8203 36.4922 26.3984 36.25 25.1016C34.5625 23.9844 36.7109 24.3438 37.2812 23.2969C38.5781 23.3359 37.3359 22.2344 37.9453 21.9141C37.8828 23.1094 38.9375 22.8828 39.7734 22.6562C39.5703 21.9688 40.2734 21.9922 39.8438 21.4219C41.7812 20.6484 38.3672 21.7812 39.0547 20.0859C38.2188 19.5078 38.7031 21.3594 39.0547 21.5547C39.0781 22.125 38.5938 22.8281 37.9297 21.6328C36.9609 22.2656 37.0625 20.9922 37 21.125C36.8906 20.6328 37.7344 20.6094 37.7422 19.75C37.6719 19.2031 37.6875 18.9141 38.0781 18.8828C38.1094 18.9609 39.6797 18.9844 40.2344 19.6328C38.7188 19.3281 40.0078 19.8828 40.6875 20.1953C39.9609 19.625 40.9766 20.1953 40.3828 19.5469C40.6172 19.5938 39.7344 18.6562 40.6406 19.4766C40.1484 18.8906 41.6016 19.0625 40.7422 18.625C42 18.9766 41.2578 18.6562 40.5156 18.3359C38.4688 17.1172 44.1328 19.9844 41.8203 18.7109C43.2969 19.0312 38.6641 17.5703 40.7734 18.2109C39.9688 17.8594 40.75 18.0547 41.4766 18.2812C40.1719 17.875 38.2188 17.1172 38.2969 17.0859C38.75 17.1172 39.1953 17.2188 39.625 17.3438C40.9609 17.7422 39.2422 17.25 39.6094 17.2578C44.2031 18.4375 48.2266 21.5156 50.6719 25.5391C51.2422 26.1406 52.7969 30.1172 51.9844 28.3516C52.3516 29.7578 52.4062 31.2734 52.6016 32.7109C52.1953 32.2578 51.7422 30.5859 51.3516 29.6562C51.1875 30.0156 51 29.1484 50.3984 28.9141Z" fill="#A1C5E9"/>
</svg>
