<svg width="70" height="70" viewBox="0 0 70 70" fill="none" xmlns="http://www.w3.org/2000/svg">
<circle cx="35" cy="35" r="35" fill="#1E2028"/>
<path d="M33.3333 18.3334L45.4967 22.1334C45.8359 22.2393 46.1324 22.4508 46.3429 22.7372C46.5534 23.0235 46.6668 23.3697 46.6667 23.725V26.6667H50C50.442 26.6667 50.866 26.8423 51.1785 27.1549C51.4911 27.4674 51.6667 27.8913 51.6667 28.3334V31.6667H30V28.3334C30 27.8913 30.1756 27.4674 30.4882 27.1549C30.8007 26.8423 31.2246 26.6667 31.6667 26.6667H43.3333V24.95L33.3333 21.8234L23.3333 24.95V37.29C23.3331 38.3104 23.5671 39.3172 24.0173 40.2329C24.4675 41.1486 25.1218 41.9488 25.93 42.5717L26.245 42.7984L33.3333 47.6334L39.6367 43.3334H31.6667C31.2246 43.3334 30.8007 43.1578 30.4882 42.8452C30.1756 42.5327 30 42.1087 30 41.6667V35H51.6667V41.6667C51.6667 42.1087 51.4911 42.5327 51.1785 42.8452C50.866 43.1578 50.442 43.3334 50 43.3334L44.6333 43.335C43.9883 44.185 43.205 44.935 42.3 45.5517L33.3333 51.6667L24.3667 45.5534C23.0209 44.6358 21.9196 43.4034 21.1586 41.9632C20.3975 40.5231 19.9998 38.9189 20 37.29V23.725C20.0002 23.3699 20.1138 23.0242 20.3243 22.7382C20.5347 22.4522 20.831 22.2409 21.17 22.135L33.3333 18.3334Z" fill="#A1C5E9"/>
</svg>
