<svg width="70" height="70" viewBox="0 0 70 70" fill="none" xmlns="http://www.w3.org/2000/svg">
<circle cx="35" cy="35" r="35" fill="#1E2028"/>
<path d="M12.6446 29.684V24.532H21.2686V45H15.5286V29.684H12.6446ZM24.0608 34.472C24.0608 31.2613 24.7141 28.732 26.0208 26.884C27.3274 25.036 29.3808 24.112 32.1808 24.112C34.9808 24.112 37.0341 25.036 38.3408 26.884C39.6661 28.732 40.3288 31.2613 40.3288 34.472C40.3288 37.72 39.6754 40.268 38.3688 42.116C37.0621 43.964 34.9994 44.888 32.1808 44.888C29.3621 44.888 27.2994 43.964 25.9928 42.116C24.7048 40.268 24.0608 37.72 24.0608 34.472ZM34.8968 34.472C34.8968 32.792 34.7194 31.5133 34.3648 30.636C34.0101 29.74 33.2821 29.292 32.1808 29.292C31.0794 29.292 30.3514 29.74 29.9968 30.636C29.6421 31.5133 29.4648 32.792 29.4648 34.472C29.4648 36.1893 29.6328 37.496 29.9688 38.392C30.3234 39.2693 31.0608 39.708 32.1808 39.708C33.3008 39.708 34.0288 39.2693 34.3648 38.392C34.7194 37.496 34.8968 36.1893 34.8968 34.472ZM56.7711 37.832H52.2631V42.48H46.9991V37.832H42.4631V32.876H46.9991V28.2H52.2631V32.876H56.7711V37.832Z" fill="#A1C5E9"/>
</svg>
