<svg width="70" height="70" viewBox="0 0 70 70" fill="none" xmlns="http://www.w3.org/2000/svg">
<circle cx="35" cy="35" r="35" fill="#1E2028"/>
<path d="M46.6667 38.3333V25C46.6667 23.1666 45.1667 21.6666 43.3333 21.6666H20C18.1667 21.6666 16.6667 23.1666 16.6667 25V38.3333C16.6667 40.1666 18.1667 41.6666 20 41.6666H43.3333C45.1667 41.6666 46.6667 40.1666 46.6667 38.3333ZM31.6667 36.6666C28.9 36.6666 26.6667 34.4333 26.6667 31.6666C26.6667 28.9 28.9 26.6666 31.6667 26.6666C34.4333 26.6666 36.6667 28.9 36.6667 31.6666C36.6667 34.4333 34.4333 36.6666 31.6667 36.6666ZM53.3333 26.6666V45C53.3333 46.8333 51.8333 48.3333 50 48.3333H21.6667V45H50V26.6666H53.3333Z" fill="#A1C5E9"/>
</svg>
